<svg fill="none" height="800" viewBox="0 0 24 24" width="800" xmlns="http://www.w3.org/2000/svg"><path d="m4 20h6.9433m0 0h.1134m-.1134 0c.0189.0002.0378.0002.0567.0002s.0378 0 .0567-.0002m-.1134 0c-3.8399-.0305-6.9433-3.1532-6.9433-7.0002v-4.07695c0-.5098.41305-.92285.92285-.92285h12.15385c.5098 0 .9233.41305.9233.92285v.07715m-6.9433 11h6.9433m-6.9433 0c3.8399-.0305 6.9433-3.1532 6.9433-7.0002m0-3.9998h1.5c1.3807 0 2.5 1.1193 2.5 2.5s-1.1193 2.5-2.5 2.5h-1.5v-1.0002m0-3.9998v3.9998m-3-9.9998-1 2m-2-2-1 2m-2-2-1 2" stroke="#000" stroke-linecap="round" stroke-linejoin="round" stroke-width="2"/></svg>