<svg height="800" viewBox="0 0 512.001 512.001" width="800" xmlns="http://www.w3.org/2000/svg"><path d="m424.761 132.315c-13.509-.119-25.391-9.508-29.568-23.362-17.877-59.297-73.02-103.352-139.193-103.352-66.08 0-121.29 43.964-139.194 103.352-4.177 13.853-16.06 23.243-29.566 23.361-76.389.691-116.244 93.308-62.588 149.014 12.923 13.418 29.29 22.157 47.18 25.456l28.6 183.844c1.413 9.078 9.229 15.773 18.417 15.773h274.307c9.187 0 17.004-6.695 18.417-15.773l28.6-183.844c17.889-3.299 34.256-12.039 47.18-25.456 53.678-55.734 13.74-148.321-62.592-149.013zm-289.953 336.811-25.022-160.846h69.339l16.988 160.845h-61.305zm143.594 0h-44.807l-16.987-160.846h78.782zm98.789 0h-61.306l16.988-160.845h69.34zm83.31-213.658c-9.651 10.02-22.623 15.536-36.528 15.536-6.001 0-330.013 0-335.949 0-13.905 0-26.877-5.517-36.528-15.536-31.003-32.186-7.812-85.519 36.069-85.88 29.92-.265 56.013-20.308 64.927-49.875 13.227-43.867 54.102-76.836 103.506-76.836 49.161 0 90.207 32.728 103.506 76.836 8.915 29.568 35.008 49.611 64.929 49.876 44.082.363 66.958 53.812 36.068 85.879z"/><circle cx="255.996" cy="203.339" r="19.534"/><circle cx="349.993" cy="203.339" r="19.534"/><circle cx="162.012" cy="203.339" r="19.534"/></svg>